<?xml version="1.0" encoding="UTF-8" standalone="no"?>
<svg
   version="1.1"
   id="Layer_1"
   x="0px"
   y="0px"
   viewBox="0 0 216.12872 271.30481"
   xml:space="preserve"
   sodipodi:docname="logo.svg"
   inkscape:version="1.4 (86a8ad7, 2024-10-11)"
   inkscape:export-filename="TeckNotesLogo-circle.png"
   inkscape:export-xdpi="199.227"
   inkscape:export-ydpi="199.227"
   width="216.12872"
   height="271.30481"
   xmlns:inkscape="http://www.inkscape.org/namespaces/inkscape"
   xmlns:sodipodi="http://sodipodi.sourceforge.net/DTD/sodipodi-0.dtd"
   xmlns="http://www.w3.org/2000/svg"
   xmlns:svg="http://www.w3.org/2000/svg"><defs
   id="defs14" /><sodipodi:namedview
   id="namedview14"
   pagecolor="#ffffff"
   bordercolor="#666666"
   borderopacity="1.0"
   inkscape:showpageshadow="2"
   inkscape:pageopacity="0.0"
   inkscape:pagecheckerboard="0"
   inkscape:deskcolor="#d1d1d1"
   inkscape:zoom="0.59040654"
   inkscape:cx="-54.199942"
   inkscape:cy="136.34673"
   inkscape:window-width="1920"
   inkscape:window-height="1009"
   inkscape:window-x="1912"
   inkscape:window-y="-8"
   inkscape:window-maximized="1"
   inkscape:current-layer="Layer_1" />
	
	
	
	
	
	<g
   id="g15"
   style="display:none"
   inkscape:label="document"
   transform="translate(-147.93565,-120.3476)"><polygon
     style="fill:#fee187"
     points="311.453,426.667 369.778,368.342 369.778,113.778 142.22,113.778 142.22,426.667 "
     id="polygon1"
     inkscape:label="page" /><polygon
     style="fill:#ffc61b"
     points="369.778,368.342 369.778,113.778 255.426,113.778 255.426,426.667 311.453,426.667 "
     id="polygon2"
     inkscape:label="pageright" /><polygon
     style="fill:#eaa22f"
     points="311.453,426.667 369.778,368.342 311.453,368.342 "
     id="polygon3"
     inkscape:label="pagecorner" /><path
     style="fill:#ff5419"
     d="M 341.333,174.114 H 170.667 c -1.903,0 -3.448,-1.545 -3.448,-3.448 0,-1.903 1.545,-3.448 3.448,-3.448 h 170.667 c 1.903,0 3.448,1.545 3.448,3.448 -10e-4,1.904 -1.545,3.448 -3.449,3.448 z"
     id="path3" /><path
     style="fill:#ff5419"
     d="M 341.333,202.559 H 170.667 c -1.903,0 -3.448,-1.545 -3.448,-3.448 0,-1.903 1.545,-3.448 3.448,-3.448 h 170.667 c 1.903,0 3.448,1.545 3.448,3.448 -10e-4,1.903 -1.545,3.448 -3.449,3.448 z"
     id="path4" /><path
     style="fill:#ff5419"
     d="M 341.333,231.003 H 170.667 c -1.903,0 -3.448,-1.545 -3.448,-3.448 0,-1.903 1.545,-3.448 3.448,-3.448 h 170.667 c 1.903,0 3.448,1.545 3.448,3.448 0,1.903 -1.545,3.448 -3.449,3.448 z"
     id="path5" /><path
     style="fill:#ff5419"
     d="M 341.333,259.448 H 170.667 c -1.903,0 -3.448,-1.545 -3.448,-3.448 0,-1.903 1.545,-3.448 3.448,-3.448 h 170.667 c 1.903,0 3.448,1.545 3.448,3.448 0,1.903 -1.545,3.448 -3.449,3.448 z"
     id="path6" /><path
     style="fill:#ff5419"
     d="M 341.333,287.892 H 170.667 c -1.903,0 -3.448,-1.545 -3.448,-3.448 0,-1.903 1.545,-3.448 3.448,-3.448 h 170.667 c 1.903,0 3.448,1.545 3.448,3.448 0,1.903 -1.545,3.448 -3.449,3.448 z"
     id="path7" /><path
     style="fill:#ff5419"
     d="M 341.333,316.337 H 170.667 c -1.903,0 -3.448,-1.545 -3.448,-3.448 0,-1.903 1.545,-3.448 3.448,-3.448 h 170.667 c 1.903,0 3.448,1.545 3.448,3.448 0,1.903 -1.545,3.448 -3.449,3.448 z"
     id="path8" /><g
     id="g14"
     style="display:inline"
     inkscape:label="linesright">
		<path
   style="fill:#c92f00"
   d="m 341.333,167.219 h -85.907 v 6.896 h 85.907 c 1.903,0 3.448,-1.545 3.448,-3.448 0,-1.904 -1.544,-3.448 -3.448,-3.448 z"
   id="path9" />
		<path
   style="fill:#c92f00"
   d="m 341.333,195.663 h -85.907 v 6.896 h 85.907 c 1.903,0 3.448,-1.545 3.448,-3.448 0,-1.903 -1.544,-3.448 -3.448,-3.448 z"
   id="path10" />
		<path
   style="fill:#c92f00"
   d="m 341.333,224.108 h -85.907 v 6.896 h 85.907 c 1.903,0 3.448,-1.545 3.448,-3.448 0,-1.903 -1.544,-3.448 -3.448,-3.448 z"
   id="path11" />
		<path
   style="fill:#c92f00"
   d="m 341.333,252.552 h -85.907 v 6.896 h 85.907 c 1.903,0 3.448,-1.545 3.448,-3.448 0,-1.903 -1.544,-3.448 -3.448,-3.448 z"
   id="path12" />
		<path
   style="fill:#c92f00"
   d="m 341.333,280.997 h -85.907 v 6.896 h 85.907 c 1.903,0 3.448,-1.545 3.448,-3.448 0,-1.903 -1.544,-3.448 -3.448,-3.448 z"
   id="path13" />
		<path
   style="fill:#c92f00"
   d="m 341.333,309.441 h -85.907 v 6.896 h 85.907 c 1.903,0 3.448,-1.545 3.448,-3.448 0,-1.903 -1.544,-3.448 -3.448,-3.448 z"
   id="path14" />
	</g><g
     id="g8"
     inkscape:label="contentlines">
		
		
		
		
		
		
	</g></g>
	
<g
   id="g16"
   inkscape:label="notes"
   transform="matrix(0.339131,0,0,0.339131,21.365254,48.834864)"
   style="display:inline"><g
     id="g2"
     style="display:inline"
     inkscape:label="Page"
     transform="matrix(1.5625,0,0,1.5625,-144.34844,-144)">
	
		<path
   style="display:inline;fill:#e6e7e8"
   d="M 319.505,512 H 66.898 c -8.193,0 -14.835,-6.642 -14.835,-14.835 V 51.414 c 0,-8.193 6.642,-14.835 14.835,-14.835 h 378.203 c 8.193,0 14.835,6.642 14.835,14.835 V 371.569 C 459.936,449.126 397.062,512 319.505,512 Z"
   id="path1-0" />
	
		<path
   style="display:inline;fill:#e6e7e8"
   d="M 445.341,512 H 66.659 c -8.061,0 -14.596,-6.534 -14.596,-14.596 V 51.175 c 0,-8.061 6.534,-14.596 14.596,-14.596 H 445.34 c 8.061,0 14.596,6.534 14.596,14.596 v 446.23 c 0,8.059 -6.534,14.595 -14.595,14.595 z"
   id="path2" />
</g><path
     style="fill:#a7a9ac;stroke-width:1.5625"
     d="M 147.375,596.48281 H 11.906247 c -3.904687,0 -7.070312,-3.16562 -7.070312,-7.07031 V 482.85625 c 0,-3.90469 3.165625,-7.07188 7.070312,-7.07188 H 147.375 c 3.90468,0 7.07031,3.16563 7.07031,7.07188 V 589.4125 c 0,3.90469 -3.16563,7.07031 -7.07031,7.07031 z"
     id="path12-9"
     inkscape:label="Tag" /><g
     id="g27"
     inkscape:label="Corner"
     transform="matrix(1.5625,0,0,1.5625,-144.34844,-144)">
		<path
   style="fill:#bcbec0"
   d="M 459.936,497.404 V 371.383 L 459.931,372.06 321.444,512 h 123.897 c 8.061,0 14.595,-6.536 14.595,-14.596 z"
   id="path11-4" />
		<path
   style="fill:#d1d3d4"
   d="m 364.971,415.265 c -0.287,0 -0.571,-0.009 -0.857,-0.011 0.007,0.576 0.022,1.151 0.022,1.729 0,38.062 -17.065,72.133 -43.955,94.997 77.189,-0.644 139.582,-63.325 139.749,-140.626 -22.863,26.864 -56.918,43.911 -94.959,43.911 z"
   id="path13-8" />
	</g><g
     id="g10"
     inkscape:label="Shadows"
     transform="matrix(1.5625,0,0,1.5625,-182.78438,-144)">
	
		
	
		<path
   style="fill:#d1d3d4"
   d="m 191.635,36.579 -12.744,33.625 c 0,5.053 4.095,9.147 9.147,9.147 5.051,0 9.147,-4.094 9.147,-9.147 l 12.744,-33.625 c -0.001,0 -18.294,0 -18.294,0 z"
   id="path4-8" />
	
		
	
		
	
		
	
		<path
   style="fill:#d1d3d4"
   d="m 376.757,36.579 -12.744,33.625 c 0,5.053 4.095,9.147 9.147,9.147 5.051,0 9.147,-4.094 9.147,-9.147 l 12.744,-33.625 c -10e-4,0 -18.294,0 -18.294,0 z"
   id="path8-2" />
	
		<path
   style="fill:#d1d3d4"
   d="m 284.197,36.579 -12.744,33.625 c 0,5.053 4.095,9.147 9.147,9.147 5.051,0 9.147,-4.094 9.147,-9.147 l 12.744,-33.625 c -10e-4,0 -18.294,0 -18.294,0 z"
   id="path9-4" />
	
		
</g><g
     id="g21"
     inkscape:label="Spiral"
     transform="matrix(1.5625,0,0,1.5625,-182.78594,-144)">
	
		
	
		
	
		<path
   style="fill:#588eed"
   d="m 188.039,79.351 c -5.051,0 -9.147,-4.094 -9.147,-9.147 V 9.147 c 0,-5.053 4.095,-9.147 9.147,-9.147 5.052,0 9.147,4.094 9.147,9.147 v 61.058 c -0.001,5.052 -4.096,9.146 -9.147,9.146 z"
   id="path16" />
	
		
	
		<path
   style="fill:#588eed"
   d="m 280.599,79.351 c -5.051,0 -9.147,-4.094 -9.147,-9.147 V 9.147 c 0,-5.053 4.095,-9.147 9.147,-9.147 5.051,0 9.147,4.094 9.147,9.147 v 61.058 c 0,5.052 -4.096,9.146 -9.147,9.146 z"
   id="path18" />
	
		
	
		<path
   style="fill:#588eed"
   d="m 373.16,79.351 c -5.051,0 -9.147,-4.094 -9.147,-9.147 V 9.147 c 0,-5.053 4.095,-9.147 9.147,-9.147 5.051,0 9.147,4.094 9.147,9.147 v 61.058 c 0,5.052 -4.095,9.146 -9.147,9.146 z"
   id="path20" />
	
		
</g><g
     id="g26"
     inkscape:label="Lines"
     transform="matrix(1.5625,0,0,1.5625,-144.34844,-144)">
	
		<path
   style="fill:#a7a9ac"
   d="M 419.44,172.689 H 95.477 c -5.051,0 -9.147,-4.094 -9.147,-9.147 0,-5.053 4.095,-9.147 9.147,-9.147 H 419.44 c 5.051,0 9.147,4.094 9.147,9.147 -10e-4,5.053 -4.096,9.147 -9.147,9.147 z"
   id="path22" />
	
		<path
   style="fill:#a7a9ac"
   d="M 419.44,214.276 H 95.477 c -5.051,0 -9.147,-4.094 -9.147,-9.147 0,-5.053 4.095,-9.147 9.147,-9.147 H 419.44 c 5.051,0 9.147,4.094 9.147,9.147 -10e-4,5.053 -4.096,9.147 -9.147,9.147 z"
   id="path23" />
	
		<path
   style="fill:#a7a9ac"
   d="M 419.44,255.863 H 95.477 c -5.051,0 -9.147,-4.094 -9.147,-9.147 0,-5.053 4.095,-9.147 9.147,-9.147 H 419.44 c 5.051,0 9.147,4.094 9.147,9.147 -10e-4,5.053 -4.096,9.147 -9.147,9.147 z"
   id="path24" />
	
		<path
   style="fill:#a7a9ac"
   d="M 419.44,297.449 H 95.477 c -5.051,0 -9.147,-4.094 -9.147,-9.147 0,-5.053 4.095,-9.147 9.147,-9.147 H 419.44 c 5.051,0 9.147,4.094 9.147,9.147 -10e-4,5.053 -4.096,9.147 -9.147,9.147 z"
   id="path25" />
	
		<path
   style="fill:#a7a9ac"
   d="M 419.44,339.036 H 95.477 c -5.051,0 -9.147,-4.094 -9.147,-9.147 0,-5.053 4.095,-9.147 9.147,-9.147 H 419.44 c 5.051,0 9.147,4.094 9.147,9.147 -10e-4,5.053 -4.096,9.147 -9.147,9.147 z"
   id="path26" />
</g></g></svg>
